<?xml version="1.0" encoding="UTF-8"?>
<!DOCTYPE svg PUBLIC "-//W3C//DTD SVG 1.1//EN" "http://www.w3.org/Graphics/SVG/1.1/DTD/svg11.dtd">
<!-- Creator: CorelDRAW 2020 (64-Bit Evaluation Version) -->
<svg xmlns="http://www.w3.org/2000/svg" xml:space="preserve" width="135.475mm" height="135.467mm" version="1.1" style="shape-rendering:geometricPrecision; text-rendering:geometricPrecision; image-rendering:optimizeQuality; fill-rule:evenodd; clip-rule:evenodd"
viewBox="0 0 8373.65 8373.14"
 xmlns:xlink="http://www.w3.org/1999/xlink"
 xmlns:xodm="http://www.corel.com/coreldraw/odm/2003">
 <defs>
  <style type="text/css">
   <![CDATA[
    .fil0 {fill:#465974;fill-rule:nonzero}
   ]]>
  </style>
 </defs>
 <g id="Layer_x0020_1">
  <metadata id="CorelCorpID_0Corel-Layer"/>
  <g id="_2105545704592">
   <path class="fil0" d="M4710.41 3139.93l279.65 0c361.42,626.35 1038.46,1046.64 1813.64,1046.64 179.89,0 356.51,-22.89 523.32,-65.41l0 65.41 0 523.32 0 3139.93c0,289.46 -233.86,523.32 -523.32,523.32 -289.47,0 -523.32,-233.86 -523.32,-523.32l0.01 -2302.62 -2224.11 1779.29 915.81 0c289.46,0 523.32,233.86 523.32,523.32 0,289.47 -233.86,523.32 -523.32,523.32l-2354.94 -0.01c-866.75,0 -1569.96,-703.21 -1569.96,-1569.96l0 -3655.06c0,-263.3 -196.25,-487.34 -457.9,-520.05l-129.19 -16.35c-287.83,-34.34 -490.61,-296 -456.27,-583.83 34.34,-287.83 297.64,-490.61 583.83,-454.63l129.19 16.35c784.98,98.12 1375.36,765.36 1375.36,1558.52l0 1394.97c562.57,-845.49 1524.18,-1403.15 2616.6,-1403.15l1.64 0zm2616.6 433.37l0 0c-163.54,57.24 -340.16,89.95 -523.32,89.95 -464.45,0 -883.1,-202.78 -1170.93,-523.32l0.01 0.01c-60.51,-67.05 -114.48,-139.01 -161.9,-215.87 -150.46,-242.04 -237.13,-526.59 -237.13,-830.78l0 0 0 -1569.96 0 -327.07 0 -21.26c0,-96.48 76.87,-173.35 173.35,-174.98l3.27 0c53.97,0 104.66,26.16 137.37,68.69l0 1.64 209.33 278.01 444.83 593.64 78.5 104.66 1046.64 0 78.5 -104.66 444.83 -593.64 209.32 -278.01 0 -1.64c32.71,-42.52 83.41,-68.69 137.37,-68.69l3.27 0.01c96.49,1.63 173.35,78.5 173.35,174.98l0 21.26 0 327.07 0 1569.96c0,282.92 -75.23,549.49 -206.06,778.44 -184.8,323.81 -484.07,575.65 -840.59,701.58l0.01 0zm-784.98 -1480.02c0,-143.91 -117.75,-261.66 -261.66,-261.66 -143.91,0 -261.66,117.75 -261.66,261.66 0,143.91 117.75,261.66 261.66,261.66 143.91,0 261.66,-117.75 261.66,-261.66zm784.98 261.66c143.91,0 261.66,-117.75 261.66,-261.66 0,-143.91 -117.75,-261.66 -261.66,-261.66 -143.91,0 -261.66,117.75 -261.66,261.66 0,143.91 117.75,261.66 261.66,261.66z"/>
  </g>
 </g>
</svg>
