<?xml version="1.0" encoding="UTF-8"?>
<!DOCTYPE svg PUBLIC "-//W3C//DTD SVG 1.1//EN" "http://www.w3.org/Graphics/SVG/1.1/DTD/svg11.dtd">
<!-- Creator: CorelDRAW 2020 (64-Bit Evaluation Version) -->
<svg xmlns="http://www.w3.org/2000/svg" xml:space="preserve" width="44.6298mm" height="30.7805mm" version="1.1" style="shape-rendering:geometricPrecision; text-rendering:geometricPrecision; image-rendering:optimizeQuality; fill-rule:evenodd; clip-rule:evenodd"
viewBox="0 0 1299.89 896.51"
 xmlns:xlink="http://www.w3.org/1999/xlink"
 xmlns:xodm="http://www.corel.com/coreldraw/odm/2003">
 <defs>
  <style type="text/css">
   <![CDATA[
    .fil0 {fill:white}
   ]]>
  </style>
 </defs>
 <g id="Layer_x0020_1">
  <metadata id="CorelCorpID_0Corel-Layer"/>
  <g id="_1851698846800">
   <path class="fil0" d="M649.94 0c98.38,87.29 160.39,214.65 160.39,356.51 0,141.86 -62.02,269.22 -160.39,356.51 -98.37,-87.29 -160.39,-214.65 -160.39,-356.51 0,-141.86 62.02,-269.22 160.39,-356.51z"/>
   <g>
    <path class="fil0" d="M1299.89 515.45c-26.41,128.84 -105.7,246.23 -228.55,317.16 -122.86,70.93 -264.16,80.9 -388.94,39.35 26.41,-128.84 105.69,-246.23 228.55,-317.16 122.86,-70.93 264.16,-80.9 388.95,-39.35z"/>
    <path class="fil0" d="M-0 515.45c26.41,128.84 105.7,246.23 228.55,317.16 122.86,70.93 264.16,80.9 388.94,39.35 -26.41,-128.84 -105.7,-246.23 -228.55,-317.16 -122.86,-70.93 -264.16,-80.9 -388.95,-39.35z"/>
   </g>
  </g>
 </g>
</svg>
