<?xml version="1.0" encoding="UTF-8"?>
<!DOCTYPE svg PUBLIC "-//W3C//DTD SVG 1.1//EN" "http://www.w3.org/Graphics/SVG/1.1/DTD/svg11.dtd">
<!-- Creator: CorelDRAW 2020 (64-Bit Evaluation Version) -->
<svg xmlns="http://www.w3.org/2000/svg" xml:space="preserve" width="65.9695mm" height="65.7932mm" version="1.1" style="shape-rendering:geometricPrecision; text-rendering:geometricPrecision; image-rendering:optimizeQuality; fill-rule:evenodd; clip-rule:evenodd"
viewBox="0 0 2642.33 2635.27"
 xmlns:xlink="http://www.w3.org/1999/xlink"
 xmlns:xodm="http://www.corel.com/coreldraw/odm/2003">
 <defs>
  <style type="text/css">
   <![CDATA[
    .fil1 {fill:#FEFEFE}
    .fil0 {fill:#5FAA44}
    .fil2 {fill:#AFD4A1}
   ]]>
  </style>
 </defs>
 <g id="Layer_x0020_1">
  <metadata id="CorelCorpID_0Corel-Layer"/>
  <polygon class="fil0" points="-0,2635.27 2642.33,2635.27 2642.33,0 -0,0 "/>
  <path class="fil1" d="M-0 497.31c92.52,76.03 199.34,194.97 289.54,284.95 97.64,97.4 185.31,184.12 283.08,281.37l424.67 422.05c55.77,55.93 62.03,86.12 33.59,130.15 -68.3,105.71 -140.06,27.14 -201.18,-33.52 -123.76,-122.84 -759.94,-776.01 -829.71,-812.83l0 514.14c59.2,41.65 123.79,117.26 179.21,172.38 62.42,62.08 114.5,113.79 176.83,175.94 113.04,112.75 229.6,241.06 346.74,344.86 57.93,51.34 154.99,86.17 228.06,125.22 77.2,41.26 143.63,78.62 219.72,118.03 99.25,51.42 653.84,406.02 477.65,45.13l-414.4 -784 -728.64 -724.93c-77.44,-77.14 -430.06,-439.01 -485.17,-474.94l0 215.99z"/>
  <polygon class="fil2" points="2179.77,1587.18 1665.55,1587.49 1736.39,1897.73 2110.85,1898.99 "/>
  <path class="fil2" d="M875.08 0l-89.51 0c62.03,229.32 270.36,570.17 385.85,744.32 164.36,247.8 306.88,403.92 501.38,616.22 -259.87,-333.22 -708.61,-998.01 -797.72,-1360.53zm1046.8 0l0 1414.99 -6.08 0c-14.27,-0.1 -32.18,-0.88 -55.09,-1.1 -112.41,-498.13 -255.62,-837.99 -317.04,-1413.89l378.21 0zm-685.82 0l-247.62 0c77.73,333.54 508.3,1143.27 798.92,1385.82 -225.01,-383.17 -430.43,-892.38 -551.3,-1385.82z"/>
  <path class="fil2" d="M2642.33 765.21c-158.54,235.81 -298.44,389.06 -487.42,595.32 136.81,-175.43 325.94,-442.74 487.42,-709.48l0 114.16zm-736.47 -765.21l0 1414.99 6.06 0c14.28,-0.1 32.18,-0.88 55.09,-1.1 112.41,-498.13 255.62,-837.99 317.04,-1413.89l-378.19 0zm685.79 0l50.68 0 0 494.27c-171.52,346.97 -415.54,735.95 -601.97,891.55 224.99,-383.17 430.43,-892.38 551.29,-1385.82z"/>
 </g>
</svg>
